<!--?xml version="1.0" standalone="no"?-->
              <svg id="sw-js-blob-svg" viewBox="0 0 100 100" xmlns="http://www.w3.org/2000/svg" version="1.1">
                    <defs> 
                        <linearGradient id="sw-gradient" x1="0" x2="1" y1="1" y2="0">
                            <stop id="stop1" stop-color="rgba(70, 49, 238, 1)" offset="0%"></stop>
                            <stop id="stop2" stop-color="rgba(251, 168, 31, 1)" offset="100%"></stop>
                        </linearGradient>
                    </defs>
                <path fill="rgba(70, 49, 238, 1)" d="M21.8,-25.5C28,-20.7,32.8,-13.6,35.8,-5C38.9,3.6,40.3,13.8,36.3,21.2C32.4,28.6,23,33.1,13.3,36.9C3.5,40.7,-6.8,43.7,-15.5,41.1C-24.3,38.6,-31.6,30.5,-36.5,21.4C-41.4,12.2,-44,2,-42.8,-8C-41.5,-17.9,-36.4,-27.6,-28.7,-32.2C-20.9,-36.8,-10.4,-36.3,-1.3,-34.7C7.8,-33.1,15.5,-30.4,21.8,-25.5Z" width="100%" height="100%" transform="translate(50 50)" stroke-width="0" style="transition: all 0.3s ease 0s;" stroke="rgba(255, 127, 80, 1)"></path>
              </svg>