<!--?xml version="1.0" standalone="no"?-->
              <svg id="sw-js-blob-svg" viewBox="0 0 100 100" xmlns="http://www.w3.org/2000/svg" version="1.1">
                    <defs> 
                        <linearGradient id="sw-gradient" x1="0" x2="1" y1="1" y2="0">
                            <stop id="stop1" stop-color="rgba(255, 127, 80, 1)" offset="0%"></stop>
                            <stop id="stop2" stop-color="rgba(251, 168, 31, 1)" offset="100%"></stop>
                        </linearGradient>
                    </defs>
                <path fill="rgba(255, 127, 80, 1)" d="M20.1,-23.8C26.2,-18.9,31.3,-12.7,32.2,-5.9C33.1,0.9,29.9,8.1,26.1,15.5C22.4,22.9,18.1,30.4,11.9,32.7C5.7,35,-2.5,32.1,-11.9,29.9C-21.3,27.7,-31.9,26.1,-35.3,20.3C-38.6,14.5,-34.8,4.5,-32.7,-5.6C-30.7,-15.7,-30.5,-25.9,-25.3,-30.9C-20.2,-36,-10.1,-35.9,-1.5,-34.1C7,-32.3,14.1,-28.7,20.1,-23.8Z" width="100%" height="100%" transform="translate(50 50)" stroke-width="0" style="transition: all 0.3s ease 0s;" stroke="rgba(255, 127, 80, 1)"></path>
              </svg>